<svg xmlns="http://www.w3.org/2000/svg" width="142" height="142" viewBox="0 0 142 142"><defs><mask id="qfg9b" width="2" height="2" x="-1" y="-1"><path fill="#fff" d="M36 6h70v70H36z"/><path d="M71 6c19.33 0 35 15.67 35 35S90.33 76 71 76 36 60.33 36 41 51.67 6 71 6z"/></mask><filter id="qfg9a" width="210" height="240" x="-34" y="-64" filterUnits="userSpaceOnUse"><feOffset dy="30" in="SourceGraphic" result="FeOffset1069Out"/><feGaussianBlur in="FeOffset1069Out" result="FeGaussianBlur1070Out" stdDeviation="24 24"/></filter></defs><g><g><g filter="url(#qfg9a)"><path fill="none" d="M71 6c19.33 0 35 15.67 35 35S90.33 76 71 76 36 60.33 36 41 51.67 6 71 6z" mask="url(&quot;#qfg9b&quot;)"/><path fill-opacity=".05" d="M71 6c19.33 0 35 15.67 35 35S90.33 76 71 76 36 60.33 36 41 51.67 6 71 6z"/></g><path fill="#24c657" d="M71 6c19.33 0 35 15.67 35 35S90.33 76 71 76 36 60.33 36 41 51.67 6 71 6z"/></g><g><path fill="#fff" d="M70.634 36.136l-8.497 8.942c-.2.21-.2.548 0 .758a.49.49 0 0 0 .722 0l8.134-8.56 8.135 8.56c.2.211.52.211.72 0a.556.556 0 0 0 .152-.377.54.54 0 0 0-.151-.378L71.35 36.14a.489.489 0 0 0-.717-.003z"/></g></g></svg>