<svg id="Icon" xmlns="http://www.w3.org/2000/svg" xmlns:xlink="http://www.w3.org/1999/xlink" width="160" height="160" viewBox="0 0 160 160">
  <defs>
    <style>
      .cls-1, .cls-3 {
        fill: #fff;
      }

      .cls-1 {
        stroke: #fff;
        stroke-linejoin: round;
        stroke-width: 15px;
        filter: url(#filter);
      }

      .cls-2 {
        fill: #ff45c4;
      }

      .cls-3 {
        fill-rule: evenodd;
      }
    </style>
    <filter id="filter" x="-7.5" y="-7.5" width="175" height="175" filterUnits="userSpaceOnUse">
      <feOffset result="offset" in="SourceAlpha"/>
      <feGaussianBlur result="blur" stdDeviation="5.477"/>
      <feFlood result="flood" flood-opacity="0.25"/>
      <feComposite result="composite" operator="in" in2="blur"/>
      <feBlend result="blend" in="SourceGraphic"/>
      <feGaussianBlur result="blur-2" stdDeviation="2.236" in="SourceAlpha"/>
      <feFlood result="flood-2" flood-color="#010202" flood-opacity="0.15"/>
      <feComposite result="composite-2" operator="out" in2="blur-2"/>
      <feOffset result="offset-2"/>
      <feComposite result="composite-3" operator="in" in2="SourceAlpha"/>
      <feBlend result="blend-2" in2="blend"/>
    </filter>
  </defs>
  <g style="fill: #fff; filter: url(#filter)">
    <circle id="Background" class="cls-1" cx="79.5" cy="79.5" r="58" style="stroke: inherit; filter: none; fill: inherit"/>
  </g>
  <use xlink:href="#Background" style="stroke: #fff; filter: none; fill: none"/>
  <circle id="Icon_Bg" data-name="Icon Bg" class="cls-2" cx="80" cy="80" r="42.5"/>
  <path id="Setting" class="cls-3" d="M1129.63,1271.26c0.09-.22.17-0.43,0.24-0.65,0.05-.12.09-0.25,0.13-0.37,0.09-.29.18-0.59,0.27-0.89,0.01-.04.03-0.09,0.04-0.14v-0.01a20,20,0,1,0-38.54.27v0.02c0.01,0.03.02,0.06,0.03,0.1,0.09,0.32.2,0.64,0.31,0.96,0.02,0.06.04,0.13,0.06,0.2,0.13,0.35.26,0.69,0.41,1.04,0.07,0.18.16,0.35,0.24,0.53,0.06,0.13.12,0.27,0.19,0.41,0.12,0.25.25,0.49,0.37,0.73a0.413,0.413,0,0,0,.07.11,19.839,19.839,0,0,0,8.88,8.45,0.01,0.01,0,0,1,.01.01c0.24,0.11.49,0.22,0.73,0.33,0.12,0.05.23,0.09,0.35,0.14,0.2,0.08.4,0.17,0.61,0.24,0.19,0.08.39,0.14,0.6,0.21,0.12,0.04.24,0.09,0.37,0.13a0.031,0.031,0,0,1,.02.01,20.044,20.044,0,0,0,5.98.91,19.782,19.782,0,0,0,6.23-1h0.02l0.15-.06q0.42-.135.84-0.3c0.11-.05.23-0.09,0.35-0.14,0.22-.09.43-0.18,0.64-0.28a19.921,19.921,0,0,0,10.09-10.2c0.04-.09.08-0.19,0.12-0.28C1129.51,1271.58,1129.57,1271.42,1129.63,1271.26Zm-35.52.68c-0.08-.18-0.16-0.35-0.24-0.52-0.08-.19-0.16-0.39-0.23-0.58-0.04-.11-0.09-0.21-0.12-0.31-0.12-.32-0.24-0.65-0.34-0.98,0.11-.09.22-0.16,0.33-0.24l2.1,3.64a4.615,4.615,0,0,0-.62.63c-0.27-.44-0.51-0.89-0.74-1.36C1094.2,1272.13,1094.15,1272.03,1094.11,1271.94Zm9.42-2.37-2.82,3.13a4.356,4.356,0,0,0-3.94-.42l-2.11-3.64A8.542,8.542,0,0,1,1103.53,1269.57Zm2.19,2.5a8.483,8.483,0,0,1,1.14,4.26h0v0.01a8.655,8.655,0,0,1-.49,2.84l-3.85-1.71a4.3,4.3,0,0,0-.42-3.31,5.807,5.807,0,0,0-.4-0.57l2.81-3.12A7.735,7.735,0,0,1,1105.72,1272.07Zm-1,9.51c-0.11-.04-0.23-0.09-0.35-0.13a19.706,19.706,0,0,1-3.37-1.7,4.283,4.283,0,0,0,.98-1.06l3.84,1.71a7.892,7.892,0,0,1-.84,1.26C1104.9,1281.64,1104.81,1281.61,1104.72,1281.58Zm-7.89-7.86a3.013,3.013,0,0,1,3.01,5.22,0.01,0.01,0,0,0-.01.01l-0.17-.14c-0.26-.19-0.5-0.4-0.75-0.6-0.13-.11-0.26-0.22-0.38-0.34-0.26-.22-0.5-0.46-0.75-0.7l-0.42-.45c-0.14-.14-0.27-0.29-0.4-0.43-0.21-.25-0.42-0.5-0.62-0.75-0.12-.16-0.25-0.33-0.38-0.49-0.06-.1-0.13-0.19-0.19-0.28A2.963,2.963,0,0,1,1096.83,1273.72Zm9.51,8.36a9.105,9.105,0,0,0,.98-1.71,0.034,0.034,0,0,0,.02-0.03c0.01,0,0-.01.01-0.01a9.929,9.929,0,0,0,.82-3.33H1109a0.67,0.67,0,0,0,.67-0.67,0.662,0.662,0,0,0-.67-0.66h-0.83a9.657,9.657,0,0,0-.99-3.68l0.72-.41a0.667,0.667,0,0,0-.66-1.16l-0.73.42a9.841,9.841,0,0,0-1.57-1.82,0.031,0.031,0,0,0-.01-0.02,0.02,0.02,0,0,1-.02-0.01,8.707,8.707,0,0,0-1.09-.83l0.42-.73a0.665,0.665,0,1,0-1.15-.67l-0.42.72a9.955,9.955,0,0,0-3.67-.98v-0.83a0.665,0.665,0,1,0-1.33,0v0.84a9.692,9.692,0,0,0-4.27,1.28c-0.2.12-.39,0.25-0.59,0.38a18.666,18.666,0,1,1,36.86-4.17,19.153,19.153,0,0,1-.41,3.89,9.89,9.89,0,0,0-4.93-1.72v-0.84a0.665,0.665,0,0,0-1.33,0v0.84a9.547,9.547,0,0,0-3.67.98l-0.42-.72a0.669,0.669,0,0,0-.91-0.25,0.662,0.662,0,0,0-.24.91l0.42,0.73a9.569,9.569,0,0,0-2.69,2.69l-0.73-.42a0.66,0.66,0,0,0-.91.24,0.669,0.669,0,0,0,.25.91l0.72,0.42a9.829,9.829,0,0,0-.99,3.67H1113a0.67,0.67,0,0,0-.67.67,0.662,0.662,0,0,0,.67.66h0.84a10.33,10.33,0,0,0,.18,1.36v0.03c0,0.01.01,0.01,0.01,0.02a9.832,9.832,0,0,0,1.1,2.86,9.116,9.116,0,0,0,.74,1.09,18.64,18.64,0,0,1-4.87.65A18.83,18.83,0,0,1,1106.34,1282.08Zm22.53-12.71c-0.07.25-.15,0.5-0.24,0.74-0.03.1-.06,0.19-0.09,0.29-0.08.22-.17,0.44-0.26,0.66-0.14.33-.28,0.65-0.43,0.97a0.488,0.488,0,0,0-.03.07c-0.22.44-.45,0.86-0.69,1.28a4.368,4.368,0,0,0-5.03-1.43l-2.1-3.63a8.473,8.473,0,0,1,8.9.96Zm-9.08,11.09c-0.22.12-.44,0.23-0.66,0.34-0.17.08-.35,0.16-0.53,0.24-0.11.05-.22,0.11-0.34,0.16-0.32.13-.65,0.26-0.97,0.37a0.257,0.257,0,0,0-.05.02,8.6,8.6,0,0,1-.96-1.33,8.2,8.2,0,0,1-.78-1.84l4.11-.88a3.638,3.638,0,0,0,.3.63,4.336,4.336,0,0,0,1.34,1.42,14.388,14.388,0,0,1-1.32.79A0.638,0.638,0,0,1,1119.79,1280.46Zm-0.95-11.48,2.11,3.64a4.357,4.357,0,0,0-1.62,3.62l-4.12.87A8.556,8.556,0,0,1,1118.84,1268.98Zm4.82,4.01a3.007,3.007,0,0,1,2.61,1.5,0.539,0.539,0,0,1,.07.13l-0.21.3-0.39.51c-0.19.25-.39,0.49-0.6,0.73-0.12.15-.25,0.29-0.38,0.44-0.16.17-.32,0.34-0.49,0.51l-0.3.3c-0.29.27-.58,0.54-0.88,0.79-0.11.1-.22,0.19-0.34,0.29-0.1.08-.21,0.17-0.32,0.25a3.045,3.045,0,0,1-1.37-1.24A3,3,0,0,1,1123.66,1272.99Zm-6.87-8.1a5.958,5.958,0,0,0-.59-4.56,7.571,7.571,0,0,0-.52-0.74l5.06-5.05a12.655,12.655,0,0,1,1.63,2.23,13.178,13.178,0,0,1,1.75,6.61,0.67,0.67,0,0,0,.66.68h0a0.67,0.67,0,0,0,.67-0.67,14.473,14.473,0,0,0-.34-3.15l1.52-.4a0.683,0.683,0,0,0,.47-0.82,0.663,0.663,0,0,0-.82-0.47l-1.51.4a15.339,15.339,0,0,0-.93-2.26l1.35-.78a0.66,0.66,0,0,0,.24-0.91,0.669,0.669,0,0,0-.91-0.25l-1.36.79a14.378,14.378,0,0,0-1.48-1.94l1.11-1.11a0.664,0.664,0,0,0,0-.94,0.676,0.676,0,0,0-.95,0l-1.1,1.1a13.178,13.178,0,0,0-1.95-1.48l0.79-1.36a0.669,0.669,0,0,0-.25-0.91,0.66,0.66,0,0,0-.91.24l-0.78,1.36a14.674,14.674,0,0,0-2.26-.92l0.4-1.53a0.662,0.662,0,1,0-1.28-.34l-0.41,1.52a15.3,15.3,0,0,0-2.42-.33v-1.57a0.67,0.67,0,0,0-1.34,0v1.57a14.185,14.185,0,0,0-2.42.31l-0.41-1.5a0.666,0.666,0,0,0-.81-0.48,0.676,0.676,0,0,0-.48.82l0.41,1.51a14.265,14.265,0,0,0-2.26.95l-0.78-1.37a0.66,0.66,0,0,0-.91-0.24,0.669,0.669,0,0,0-.25.91l0.78,1.35a15.828,15.828,0,0,0-1.94,1.49l-1.1-1.1a0.676,0.676,0,0,0-.95,0,0.664,0.664,0,0,0,0,.94l1.11,1.11a14.621,14.621,0,0,0-1.48,1.94l-1.36-.78a0.665,0.665,0,1,0-.67,1.15l1.36,0.79a15.223,15.223,0,0,0-.93,2.25l-1.52-.4a0.663,0.663,0,0,0-.82.47,0.683,0.683,0,0,0,.47.82l1.52,0.4a15.045,15.045,0,0,0-.34,3.15,0.67,0.67,0,0,0,.67.67h0a0.674,0.674,0,0,0,.66-0.67,13.2,13.2,0,0,1,3.39-8.85l5.04,5.05a6.051,6.051,0,0,0-1.11,2.19,6,6,0,0,0,4.25,7.35,5.91,5.91,0,0,0,1.56.2,6.01,6.01,0,0,0,2.99-.8A5.94,5.94,0,0,0,1116.79,1264.89Zm-8.79-6.75a5.4,5.4,0,0,0-.74.51l-5.05-5.05a12.571,12.571,0,0,1,2.23-1.64,13.139,13.139,0,0,1,15.35,1.64l-5.05,5.05A5.983,5.983,0,0,0,1108,1258.14Zm1.79,9.7a4.683,4.683,0,1,1,3.54-.47A4.629,4.629,0,0,1,1109.79,1267.84Z" transform="translate(-1030.5 -1183.5)"/>
</svg>
